<svg width="24" height="24" viewBox="0 0 24 24" fill="none" xmlns="http://www.w3.org/2000/svg">
<path fill-rule="evenodd" clip-rule="evenodd" d="M10.7379 3.05118C11.1281 2.63858 11.4704 2.5 11.75 2.5C12.0296 2.5 12.3719 2.63858 12.7621 3.05118C13.1538 3.46536 13.5411 4.10495 13.8821 4.95748C14.138 5.59734 14.3596 6.33631 14.5365 7.1525C13.6462 7.05277 12.7116 7 11.75 7C10.7884 7 9.85378 7.05277 8.96354 7.1525C9.1404 6.33631 9.36199 5.59734 9.61793 4.95748C9.95894 4.10495 10.3462 3.46536 10.7379 3.05118ZM7.38641 7.38641C7.59323 6.27904 7.87744 5.26983 8.22522 4.40039C8.44034 3.86258 8.68444 3.36652 8.95735 2.92903C6.09478 3.83446 3.83446 6.09478 2.92903 8.95735C3.36652 8.68444 3.86258 8.44034 4.40039 8.22522C5.26983 7.87744 6.27904 7.59323 7.38641 7.38641ZM2.5 11.75C2.5 11.7502 2.5 11.7503 2.5 11.7505C2.50016 12.03 2.63881 12.3721 3.05118 12.7621C3.46536 13.1538 4.10495 13.5411 4.95748 13.8821C5.59734 14.138 6.33631 14.3596 7.1525 14.5365C7.05277 13.6462 7 12.7116 7 11.75C7 10.7884 7.05277 9.85378 7.1525 8.96354C6.33631 9.1404 5.59734 9.36199 4.95747 9.61793C4.10495 9.95894 3.46536 10.3462 3.05118 10.7379C2.63858 11.1281 2.5 11.4704 2.5 11.75ZM8.69628 14.8037C8.56954 13.8491 8.5 12.8226 8.5 11.75C8.5 10.6774 8.56954 9.65086 8.69628 8.69628C9.65086 8.56954 10.6774 8.5 11.75 8.5C12.8226 8.5 13.8491 8.56954 14.8037 8.69628C14.9305 9.65086 15 10.6774 15 11.75C15 12.8226 14.9305 13.8491 14.8037 14.8037C13.8491 14.9305 12.8226 15 11.75 15C10.6774 15 9.65086 14.9305 8.69628 14.8037ZM7.38641 16.1136C6.27904 15.9068 5.26983 15.6226 4.40039 15.2748C3.86258 15.0597 3.36652 14.8156 2.92903 14.5427C3.83446 17.4052 6.09478 19.6655 8.95735 20.571C8.68444 20.1335 8.44034 19.6374 8.22522 19.0996C7.87744 18.2302 7.59323 17.221 7.38641 16.1136ZM1 11.75C1 5.81294 5.81294 1 11.75 1C17.6871 1 22.5 5.81294 22.5 11.75C22.5 17.6871 17.6871 22.5 11.75 22.5C5.81294 22.5 1 17.6871 1 11.75ZM20.571 8.95735C19.6655 6.09478 17.4052 3.83446 14.5427 2.92903C14.8156 3.36652 15.0597 3.86258 15.2748 4.40039C15.6226 5.26983 15.9068 6.27904 16.1136 7.38641C17.221 7.59323 18.2302 7.87744 19.0996 8.22522C19.6374 8.44034 20.1335 8.68444 20.571 8.95735ZM16.3475 8.96354C17.1637 9.1404 17.9027 9.36199 18.5425 9.61793C19.3951 9.95894 20.0346 10.3462 20.4488 10.7379C20.8614 11.1281 21 11.4704 21 11.75C21 12.0296 20.8614 12.3719 20.4488 12.7621C20.0346 13.1538 19.3951 13.5411 18.5425 13.8821C17.9027 14.138 17.1637 14.3596 16.3475 14.5365C16.4472 13.6462 16.5 12.7116 16.5 11.75C16.5 10.7884 16.4472 9.85378 16.3475 8.96354ZM16.1136 16.1136C17.221 15.9068 18.2302 15.6226 19.0996 15.2748C19.6374 15.0597 20.1335 14.8156 20.571 14.5427C19.6655 17.4052 17.4052 19.6655 14.5427 20.571C14.8156 20.1335 15.0597 19.6374 15.2748 19.0996C15.6226 18.2302 15.9068 17.221 16.1136 16.1136ZM14.5365 16.3475C14.3596 17.1637 14.138 17.9027 13.8821 18.5425C13.5411 19.3951 13.1538 20.0346 12.7621 20.4488C12.3719 20.8614 12.0296 21 11.75 21C11.4704 21 11.1281 20.8614 10.7379 20.4488C10.3462 20.0346 9.95894 19.3951 9.61793 18.5425C9.36199 17.9027 9.1404 17.1637 8.96354 16.3475C9.85378 16.4472 10.7884 16.5 11.75 16.5C12.7116 16.5 13.6462 16.4472 14.5365 16.3475Z" fill="#800080"/>
</svg>